<svg xmlns="http://www.w3.org/2000/svg" version="1.0" width="255.000000pt" height="249.000000pt" viewBox="-3 -3 261 255" preserveAspectRatio="xMidYMid meet"><g id="deeditor_bgCarrier" stroke-width="0">
  <rect id="dee_c_e" x="-3" y="-3" width="261" height="255" rx="38.4" fill="#004cb4" strokewidth="0"/>
</g>

<g transform="translate(0.000000,249.000000) scale(0.100000,-0.100000)" fill="#f9f9f9" stroke="none">
<path d="M783 2175 c-143 -72 -241 -273 -319 -650 -53 -258 -94 -613 -110 -956 -6 -126 -4 -151 11 -182 23 -49 73 -73 121 -57 53 18 74 60 74 145 0 101 18 368 36 525 52 472 127 786 219 925 40 60 65 73 95 52 139 -97 244 -559 270 -1196 5 -144 15 -260 21 -275 11 -23 62 -56 89 -56 28 0 79 33 88 58 6 15 15 141 22 280 20 477 75 818 167 1036 46 111 102 174 143 161 55 -18 136 -204 188 -435 62 -270 122 -802 122 -1075 0 -85 21 -127 74 -145 48 -16 98 8 122 58 14 31 16 55 10 176 -31 631 -126 1168 -251 1416 -44 88 -113 163 -181 196 -47 23 -62 26 -110 20 -152 -18 -264 -146 -349 -398 -19 -58 -35 -113 -35 -122 0 -34 -17 -14 -29 37 -7 28 -31 97 -52 152 -82 211 -186 317 -326 331 -50 5 -66 2 -110 -21z" fill="#f9f9f9"/>
</g>
</svg>